<?xml version="1.0" encoding="iso-8859-1"?>
<!-- Generator: Adobe Illustrator 19.0.0, SVG Export Plug-In . SVG Version: 6.00 Build 0)  -->
<svg version="1.1" id="Capa_1" xmlns="http://www.w3.org/2000/svg" xmlns:xlink="http://www.w3.org/1999/xlink" x="0px" y="0px"
	 viewBox="0 0 511 511" style="enable-background:new 0 0 511 511;" xml:space="preserve">
<g>
	<path d="M295.5,304c-17.369,0-31.5,14.131-31.5,31.5s14.131,31.5,31.5,31.5s31.5-14.131,31.5-31.5S312.869,304,295.5,304z
		 M295.5,352c-9.098,0-16.5-7.402-16.5-16.5s7.402-16.5,16.5-16.5s16.5,7.402,16.5,16.5S304.598,352,295.5,352z"/>
	<path d="M479.5,120c-17.369,0-31.5,14.131-31.5,31.5s14.131,31.5,31.5,31.5s31.5-14.131,31.5-31.5S496.869,120,479.5,120z
		 M479.5,168c-9.098,0-16.5-7.402-16.5-16.5s7.402-16.5,16.5-16.5s16.5,7.402,16.5,16.5S488.598,168,479.5,168z"/>
	<path d="M151.5,256c-17.369,0-31.5,14.131-31.5,31.5s14.131,31.5,31.5,31.5s31.5-14.131,31.5-31.5S168.869,256,151.5,256z
		 M151.5,304c-9.098,0-16.5-7.402-16.5-16.5s7.402-16.5,16.5-16.5s16.5,7.402,16.5,16.5S160.598,304,151.5,304z"/>
	<path d="M23.5,344C10.542,344,0,354.542,0,367.5S10.542,391,23.5,391S47,380.458,47,367.5S36.458,344,23.5,344z M23.5,376
		c-4.687,0-8.5-3.813-8.5-8.5s3.813-8.5,8.5-8.5s8.5,3.813,8.5,8.5S28.187,376,23.5,376z"/>
	<path d="M463.5,312c-12.958,0-23.5,10.542-23.5,23.5s10.542,23.5,23.5,23.5s23.5-10.542,23.5-23.5S476.458,312,463.5,312z
		 M463.5,344c-4.687,0-8.5-3.813-8.5-8.5s3.813-8.5,8.5-8.5s8.5,3.813,8.5,8.5S468.187,344,463.5,344z"/>
	<path d="M303,191.5c0-12.958-10.542-23.5-23.5-23.5S256,178.542,256,191.5s10.542,23.5,23.5,23.5S303,204.458,303,191.5z
		 M271,191.5c0-4.687,3.813-8.5,8.5-8.5s8.5,3.813,8.5,8.5s-3.813,8.5-8.5,8.5S271,196.187,271,191.5z"/>
	<path d="M78.47,324.3c-3.51,2.2-4.58,6.82-2.39,10.33c1.43,2.28,3.87,3.53,6.37,3.53c1.36,0,2.73-0.37,3.97-1.14
		c3.51-2.2,4.58-6.82,2.38-10.33C86.61,323.17,81.98,322.1,78.47,324.3z"/>
	<path d="M102.21,309.46c-3.51,2.19-4.58,6.82-2.38,10.33c1.42,2.28,3.87,3.53,6.37,3.53c1.35,0,2.73-0.37,3.96-1.14
		c3.52-2.2,4.58-6.82,2.39-10.34C110.35,308.33,105.73,307.26,102.21,309.46z"/>
	<path d="M54.73,339.14c-3.52,2.2-4.59,6.82-2.39,10.34c1.42,2.27,3.87,3.52,6.37,3.52c1.35,0,2.73-0.37,3.96-1.14
		c3.52-2.19,4.59-6.82,2.39-10.33C62.86,338.01,58.24,336.94,54.73,339.14z"/>
	<path d="M236.44,307.91c-3.94-1.31-8.18,0.81-9.49,4.74s0.81,8.18,4.74,9.49c0.79,0.26,1.59,0.38,2.37,0.38
		c3.14,0,6.07-1.98,7.12-5.13C242.49,313.46,240.37,309.22,236.44,307.91z"/>
	<path d="M209.87,299.05c-3.93-1.31-8.18,0.81-9.48,4.74c-1.31,3.93,0.81,8.18,4.74,9.49c0.79,0.26,1.59,0.39,2.37,0.39
		c3.14,0,6.07-1.99,7.11-5.13C215.93,304.61,213.8,300.36,209.87,299.05z"/>
	<path d="M288.71,282c0.28,0,0.56-0.01,0.84-0.05c4.12-0.45,7.08-4.16,6.63-8.28c-0.46-4.11-4.17-7.08-8.29-6.62
		c-4.11,0.45-7.08,4.16-6.62,8.28C281.69,279.16,284.94,282,288.71,282z"/>
	<path d="M286.46,254.13c4.11-0.46,7.08-4.17,6.62-8.29c-0.45-4.11-4.16-7.08-8.28-6.62c-4.11,0.45-7.08,4.16-6.62,8.28
		c0.42,3.83,3.67,6.67,7.44,6.67C285.9,254.17,286.18,254.16,286.46,254.13z"/>
	<path d="M415.4,156.67c-4.06,0.81-6.7,4.77-5.89,8.83c0.72,3.56,3.85,6.03,7.35,6.03c0.49,0,0.98-0.05,1.48-0.15
		c4.06-0.81,6.69-4.76,5.88-8.82C423.41,158.49,419.46,155.86,415.4,156.67z"/>
	<path d="M360.49,167.65c-4.07,0.82-6.7,4.77-5.89,8.83c0.71,3.56,3.85,6.03,7.35,6.03c0.49,0,0.98-0.05,1.48-0.15
		c4.06-0.81,6.69-4.76,5.88-8.82C368.5,169.48,364.55,166.84,360.49,167.65z"/>
	<path d="M387.94,162.16c-4.06,0.82-6.69,4.77-5.88,8.83c0.71,3.56,3.84,6.03,7.34,6.03c0.49,0,0.99-0.05,1.48-0.15
		c4.06-0.81,6.7-4.76,5.89-8.82C395.95,163.99,392,161.35,387.94,162.16z"/>
	<path d="M333.03,173.15c-4.06,0.81-6.7,4.76-5.88,8.82c0.71,3.57,3.84,6.03,7.34,6.03c0.49,0,0.98-0.05,1.48-0.15
		c4.06-0.81,6.7-4.76,5.88-8.82C341.04,174.97,337.09,172.33,333.03,173.15z"/>
	<path d="M462.39,261.64c-0.35,4.13,2.7,7.76,6.83,8.12c0.22,0.02,0.44,0.03,0.65,0.03c3.85,0,7.13-2.95,7.47-6.85
		c0.36-4.13-2.7-7.76-6.82-8.12C466.39,254.46,462.75,257.51,462.39,261.64z"/>
	<path d="M459.97,289.53c-0.36,4.13,2.69,7.77,6.82,8.13c0.22,0.02,0.44,0.02,0.66,0.02c3.85,0,7.12-2.94,7.46-6.85
		c0.36-4.12-2.69-7.76-6.82-8.12S460.33,285.41,459.97,289.53z"/>
	<path d="M474.72,214c3.85,0,7.13-2.94,7.47-6.85c0.36-4.13-2.7-7.76-6.82-8.12c-4.13-0.36-7.77,2.69-8.12,6.82
		c-0.36,4.13,2.69,7.76,6.82,8.12C474.29,213.99,474.51,214,474.72,214z"/>
	<path d="M464.82,233.74c-0.36,4.13,2.7,7.77,6.82,8.13c0.22,0.02,0.44,0.02,0.66,0.02c3.85,0,7.12-2.94,7.46-6.85
		c0.36-4.12-2.69-7.76-6.82-8.12S465.18,229.62,464.82,233.74z"/>
	<circle cx="384.5" cy="335.5" r="7.5"/>
	<circle cx="356.5" cy="335.5" r="7.5"/>
	<circle cx="412.5" cy="335.5" r="7.5"/>
</g>
<g>
</g>
<g>
</g>
<g>
</g>
<g>
</g>
<g>
</g>
<g>
</g>
<g>
</g>
<g>
</g>
<g>
</g>
<g>
</g>
<g>
</g>
<g>
</g>
<g>
</g>
<g>
</g>
<g>
</g>
</svg>
